<?xml version="1.0" encoding="UTF-8"?>
<!DOCTYPE svg PUBLIC "-//W3C//DTD SVG 1.1//EN"
    "http://www.w3.org/Graphics/SVG/1.1/DTD/svg11.dtd"><svg xmlns="http://www.w3.org/2000/svg" height="400.0000" stroke-opacity="1" viewBox="0 0 400 400" font-size="1" width="400.0000" xmlns:xlink="http://www.w3.org/1999/xlink" stroke="rgb(0,0,0)" version="1.1"><defs></defs><g stroke-linejoin="miter" stroke-opacity="1.0" fill-opacity="0.0" stroke="rgb(0,0,0)" stroke-width="1.5999999999999999" fill="rgb(0,0,0)" stroke-linecap="butt" stroke-miterlimit="10.0"><path d="M 0.4866,399.5134 l 3.2441,-3.2441 l 3.2441,-6.4882 h 58.3942 l 16.2206,-19.4647 h 48.6618 l 71.3706,-58.3942 v -223.8443 l 6.4882,-58.3942 l 32.4412,-19.4647 h 9.7324 l 149.2295,-9.7324 "/></g><g stroke-linejoin="miter" stroke-opacity="1.0" fill-opacity="1.0" stroke="rgb(0,0,0)" stroke-width="1.5999999999999999" fill="rgb(0,0,0)" stroke-linecap="butt" stroke-miterlimit="10.0"><path d="M 260.5028,311.9221 c 0.0000,-0.2688 -0.2179,-0.4866 -0.4866 -0.4866c -0.2688,-0.0000 -0.4866,0.2179 -0.4866 0.4866c -0.0000,0.2688 0.2179,0.4866 0.4866 0.4866c 0.2688,0.0000 0.4866,-0.2179 0.4866 -0.4866Z"/></g><g stroke-linejoin="miter" stroke-opacity="1.0" fill-opacity="1.0" stroke="rgb(0,0,0)" stroke-width="1.5999999999999999" fill="rgb(0,0,0)" stroke-linecap="butt" stroke-miterlimit="10.0"><path d="M 400.0000,0.4866 c 0.0000,-0.2688 -0.2179,-0.4866 -0.4866 -0.4866c -0.2688,-0.0000 -0.4866,0.2179 -0.4866 0.4866c -0.0000,0.2688 0.2179,0.4866 0.4866 0.4866c 0.2688,0.0000 0.4866,-0.2179 0.4866 -0.4866Z"/></g><g stroke-linejoin="miter" stroke-opacity="1.0" fill-opacity="1.0" stroke="rgb(0,0,0)" stroke-width="1.5999999999999999" fill="rgb(0,0,0)" stroke-linecap="butt" stroke-miterlimit="10.0"><path d="M 52.8792,263.2603 c 0.0000,-0.2688 -0.2179,-0.4866 -0.4866 -0.4866c -0.2688,-0.0000 -0.4866,0.2179 -0.4866 0.4866c -0.0000,0.2688 0.2179,0.4866 0.4866 0.4866c 0.2688,0.0000 0.4866,-0.2179 0.4866 -0.4866Z"/></g><g stroke-linejoin="miter" stroke-opacity="1.0" fill-opacity="1.0" stroke="rgb(0,0,0)" stroke-width="1.5999999999999999" fill="rgb(0,0,0)" stroke-linecap="butt" stroke-miterlimit="10.0"><path d="M 130.7380,29.6837 c 0.0000,-0.2688 -0.2179,-0.4866 -0.4866 -0.4866c -0.2688,-0.0000 -0.4866,0.2179 -0.4866 0.4866c -0.0000,0.2688 0.2179,0.4866 0.4866 0.4866c 0.2688,0.0000 0.4866,-0.2179 0.4866 -0.4866Z"/></g><g stroke-linejoin="miter" stroke-opacity="1.0" fill-opacity="1.0" stroke="rgb(0,0,0)" stroke-width="1.5999999999999999" fill="rgb(0,0,0)" stroke-linecap="butt" stroke-miterlimit="10.0"><path d="M 4.2174,263.2603 c 0.0000,-0.2688 -0.2179,-0.4866 -0.4866 -0.4866c -0.2688,-0.0000 -0.4866,0.2179 -0.4866 0.4866c -0.0000,0.2688 0.2179,0.4866 0.4866 0.4866c 0.2688,0.0000 0.4866,-0.2179 0.4866 -0.4866Z"/></g><g stroke-linejoin="miter" stroke-opacity="1.0" fill-opacity="1.0" stroke="rgb(0,0,0)" stroke-width="1.5999999999999999" fill="rgb(0,0,0)" stroke-linecap="butt" stroke-miterlimit="10.0"><path d="M 202.1087,311.9221 c 0.0000,-0.2688 -0.2179,-0.4866 -0.4866 -0.4866c -0.2688,-0.0000 -0.4866,0.2179 -0.4866 0.4866c -0.0000,0.2688 0.2179,0.4866 0.4866 0.4866c 0.2688,0.0000 0.4866,-0.2179 0.4866 -0.4866Z"/></g><g stroke-linejoin="miter" stroke-opacity="1.0" fill-opacity="1.0" stroke="rgb(0,0,0)" stroke-width="1.5999999999999999" fill="rgb(0,0,0)" stroke-linecap="butt" stroke-miterlimit="10.0"><path d="M 82.0762,29.6837 c 0.0000,-0.2688 -0.2179,-0.4866 -0.4866 -0.4866c -0.2688,-0.0000 -0.4866,0.2179 -0.4866 0.4866c -0.0000,0.2688 0.2179,0.4866 0.4866 0.4866c 0.2688,0.0000 0.4866,-0.2179 0.4866 -0.4866Z"/></g><g stroke-linejoin="miter" stroke-opacity="1.0" fill-opacity="1.0" stroke="rgb(0,0,0)" stroke-width="1.5999999999999999" fill="rgb(0,0,0)" stroke-linecap="butt" stroke-miterlimit="10.0"><path d="M 208.5969,370.3163 c 0.0000,-0.2688 -0.2179,-0.4866 -0.4866 -0.4866c -0.2688,-0.0000 -0.4866,0.2179 -0.4866 0.4866c -0.0000,0.2688 0.2179,0.4866 0.4866 0.4866c 0.2688,0.0000 0.4866,-0.2179 0.4866 -0.4866Z"/></g><g stroke-linejoin="miter" stroke-opacity="1.0" fill-opacity="1.0" stroke="rgb(0,0,0)" stroke-width="1.5999999999999999" fill="rgb(0,0,0)" stroke-linecap="butt" stroke-miterlimit="10.0"><path d="M 26.9262,88.0779 c 0.0000,-0.2688 -0.2179,-0.4866 -0.4866 -0.4866c -0.2688,-0.0000 -0.4866,0.2179 -0.4866 0.4866c -0.0000,0.2688 0.2179,0.4866 0.4866 0.4866c 0.2688,0.0000 0.4866,-0.2179 0.4866 -0.4866Z"/></g><g stroke-linejoin="miter" stroke-opacity="1.0" fill-opacity="1.0" stroke="rgb(0,0,0)" stroke-width="1.5999999999999999" fill="rgb(0,0,0)" stroke-linecap="butt" stroke-miterlimit="10.0"><path d="M 104.7851,10.2190 c 0.0000,-0.2688 -0.2179,-0.4866 -0.4866 -0.4866c -0.2688,-0.0000 -0.4866,0.2179 -0.4866 0.4866c -0.0000,0.2688 0.2179,0.4866 0.4866 0.4866c 0.2688,0.0000 0.4866,-0.2179 0.4866 -0.4866Z"/></g><g stroke-linejoin="miter" stroke-opacity="1.0" fill-opacity="1.0" stroke="rgb(0,0,0)" stroke-width="1.5999999999999999" fill="rgb(0,0,0)" stroke-linecap="butt" stroke-miterlimit="10.0"><path d="M 17.1938,88.0779 c 0.0000,-0.2688 -0.2179,-0.4866 -0.4866 -0.4866c -0.2688,-0.0000 -0.4866,0.2179 -0.4866 0.4866c -0.0000,0.2688 0.2179,0.4866 0.4866 0.4866c 0.2688,0.0000 0.4866,-0.2179 0.4866 -0.4866Z"/></g><g stroke-linejoin="miter" stroke-opacity="1.0" fill-opacity="1.0" stroke="rgb(0,0,0)" stroke-width="1.5999999999999999" fill="rgb(0,0,0)" stroke-linecap="butt" stroke-miterlimit="10.0"><path d="M 250.7705,10.2190 c 0.0000,-0.2688 -0.2179,-0.4866 -0.4866 -0.4866c -0.2688,-0.0000 -0.4866,0.2179 -0.4866 0.4866c -0.0000,0.2688 0.2179,0.4866 0.4866 0.4866c 0.2688,0.0000 0.4866,-0.2179 0.4866 -0.4866Z"/></g><g stroke-linejoin="miter" stroke-opacity="1.0" fill-opacity="1.0" stroke="rgb(0,0,0)" stroke-width="1.5999999999999999" fill="rgb(0,0,0)" stroke-linecap="butt" stroke-miterlimit="10.0"><path d="M 101.5410,29.6837 c 0.0000,-0.2688 -0.2179,-0.4866 -0.4866 -0.4866c -0.2688,-0.0000 -0.4866,0.2179 -0.4866 0.4866c -0.0000,0.2688 0.2179,0.4866 0.4866 0.4866c 0.2688,0.0000 0.4866,-0.2179 0.4866 -0.4866Z"/></g><g stroke-linejoin="miter" stroke-opacity="1.0" fill-opacity="1.0" stroke="rgb(0,0,0)" stroke-width="1.5999999999999999" fill="rgb(0,0,0)" stroke-linecap="butt" stroke-miterlimit="10.0"><path d="M 65.8556,389.7810 c 0.0000,-0.2688 -0.2179,-0.4866 -0.4866 -0.4866c -0.2688,-0.0000 -0.4866,0.2179 -0.4866 0.4866c -0.0000,0.2688 0.2179,0.4866 0.4866 0.4866c 0.2688,0.0000 0.4866,-0.2179 0.4866 -0.4866Z"/></g><g stroke-linejoin="miter" stroke-opacity="1.0" fill-opacity="1.0" stroke="rgb(0,0,0)" stroke-width="1.5999999999999999" fill="rgb(0,0,0)" stroke-linecap="butt" stroke-miterlimit="10.0"><path d="M 241.0381,10.2190 c 0.0000,-0.2688 -0.2179,-0.4866 -0.4866 -0.4866c -0.2688,-0.0000 -0.4866,0.2179 -0.4866 0.4866c -0.0000,0.2688 0.2179,0.4866 0.4866 0.4866c 0.2688,0.0000 0.4866,-0.2179 0.4866 -0.4866Z"/></g><g stroke-linejoin="miter" stroke-opacity="1.0" fill-opacity="1.0" stroke="rgb(0,0,0)" stroke-width="1.5999999999999999" fill="rgb(0,0,0)" stroke-linecap="butt" stroke-miterlimit="10.0"><path d="M 13.9497,29.6837 c 0.0000,-0.2688 -0.2179,-0.4866 -0.4866 -0.4866c -0.2688,-0.0000 -0.4866,0.2179 -0.4866 0.4866c -0.0000,0.2688 0.2179,0.4866 0.4866 0.4866c 0.2688,0.0000 0.4866,-0.2179 0.4866 -0.4866Z"/></g><g stroke-linejoin="miter" stroke-opacity="1.0" fill-opacity="1.0" stroke="rgb(0,0,0)" stroke-width="1.5999999999999999" fill="rgb(0,0,0)" stroke-linecap="butt" stroke-miterlimit="10.0"><path d="M 121.0057,136.7397 c 0.0000,-0.2688 -0.2179,-0.4866 -0.4866 -0.4866c -0.2688,-0.0000 -0.4866,0.2179 -0.4866 0.4866c -0.0000,0.2688 0.2179,0.4866 0.4866 0.4866c 0.2688,0.0000 0.4866,-0.2179 0.4866 -0.4866Z"/></g><g stroke-linejoin="miter" stroke-opacity="1.0" fill-opacity="1.0" stroke="rgb(0,0,0)" stroke-width="1.5999999999999999" fill="rgb(0,0,0)" stroke-linecap="butt" stroke-miterlimit="10.0"><path d="M 163.1792,88.0779 c 0.0000,-0.2688 -0.2179,-0.4866 -0.4866 -0.4866c -0.2688,-0.0000 -0.4866,0.2179 -0.4866 0.4866c -0.0000,0.2688 0.2179,0.4866 0.4866 0.4866c 0.2688,0.0000 0.4866,-0.2179 0.4866 -0.4866Z"/></g><g stroke-linejoin="miter" stroke-opacity="1.0" fill-opacity="1.0" stroke="rgb(0,0,0)" stroke-width="1.5999999999999999" fill="rgb(0,0,0)" stroke-linecap="butt" stroke-miterlimit="10.0"><path d="M 7.4615,389.7810 c 0.0000,-0.2688 -0.2179,-0.4866 -0.4866 -0.4866c -0.2688,-0.0000 -0.4866,0.2179 -0.4866 0.4866c -0.0000,0.2688 0.2179,0.4866 0.4866 0.4866c 0.2688,0.0000 0.4866,-0.2179 0.4866 -0.4866Z"/></g><g stroke-linejoin="miter" stroke-opacity="1.0" fill-opacity="1.0" stroke="rgb(0,0,0)" stroke-width="1.5999999999999999" fill="rgb(0,0,0)" stroke-linecap="butt" stroke-miterlimit="10.0"><path d="M 325.3852,136.7397 c 0.0000,-0.2688 -0.2179,-0.4866 -0.4866 -0.4866c -0.2688,-0.0000 -0.4866,0.2179 -0.4866 0.4866c -0.0000,0.2688 0.2179,0.4866 0.4866 0.4866c 0.2688,0.0000 0.4866,-0.2179 0.4866 -0.4866Z"/></g><g stroke-linejoin="miter" stroke-opacity="1.0" fill-opacity="1.0" stroke="rgb(0,0,0)" stroke-width="1.5999999999999999" fill="rgb(0,0,0)" stroke-linecap="butt" stroke-miterlimit="10.0"><path d="M 33.4144,263.2603 c 0.0000,-0.2688 -0.2179,-0.4866 -0.4866 -0.4866c -0.2688,-0.0000 -0.4866,0.2179 -0.4866 0.4866c -0.0000,0.2688 0.2179,0.4866 0.4866 0.4866c 0.2688,0.0000 0.4866,-0.2179 0.4866 -0.4866Z"/></g><g stroke-linejoin="miter" stroke-opacity="1.0" fill-opacity="1.0" stroke="rgb(0,0,0)" stroke-width="1.5999999999999999" fill="rgb(0,0,0)" stroke-linecap="butt" stroke-miterlimit="10.0"><path d="M 104.7851,389.7810 c 0.0000,-0.2688 -0.2179,-0.4866 -0.4866 -0.4866c -0.2688,-0.0000 -0.4866,0.2179 -0.4866 0.4866c -0.0000,0.2688 0.2179,0.4866 0.4866 0.4866c 0.2688,0.0000 0.4866,-0.2179 0.4866 -0.4866Z"/></g><g stroke-linejoin="miter" stroke-opacity="1.0" fill-opacity="1.0" stroke="rgb(0,0,0)" stroke-width="1.5999999999999999" fill="rgb(0,0,0)" stroke-linecap="butt" stroke-miterlimit="10.0"><path d="M 26.9262,311.9221 c 0.0000,-0.2688 -0.2179,-0.4866 -0.4866 -0.4866c -0.2688,-0.0000 -0.4866,0.2179 -0.4866 0.4866c -0.0000,0.2688 0.2179,0.4866 0.4866 0.4866c 0.2688,0.0000 0.4866,-0.2179 0.4866 -0.4866Z"/></g><g stroke-linejoin="miter" stroke-opacity="1.0" fill-opacity="1.0" stroke="rgb(0,0,0)" stroke-width="1.5999999999999999" fill="rgb(0,0,0)" stroke-linecap="butt" stroke-miterlimit="10.0"><path d="M 4.2174,396.2693 c 0.0000,-0.2688 -0.2179,-0.4866 -0.4866 -0.4866c -0.2688,-0.0000 -0.4866,0.2179 -0.4866 0.4866c -0.0000,0.2688 0.2179,0.4866 0.4866 0.4866c 0.2688,0.0000 0.4866,-0.2179 0.4866 -0.4866Z"/></g><g stroke-linejoin="miter" stroke-opacity="1.0" fill-opacity="1.0" stroke="rgb(0,0,0)" stroke-width="1.5999999999999999" fill="rgb(0,0,0)" stroke-linecap="butt" stroke-miterlimit="10.0"><path d="M 4.2174,136.7397 c 0.0000,-0.2688 -0.2179,-0.4866 -0.4866 -0.4866c -0.2688,-0.0000 -0.4866,0.2179 -0.4866 0.4866c -0.0000,0.2688 0.2179,0.4866 0.4866 0.4866c 0.2688,0.0000 0.4866,-0.2179 0.4866 -0.4866Z"/></g><g stroke-linejoin="miter" stroke-opacity="1.0" fill-opacity="1.0" stroke="rgb(0,0,0)" stroke-width="1.5999999999999999" fill="rgb(0,0,0)" stroke-linecap="butt" stroke-miterlimit="10.0"><path d="M 208.5969,29.6837 c 0.0000,-0.2688 -0.2179,-0.4866 -0.4866 -0.4866c -0.2688,-0.0000 -0.4866,0.2179 -0.4866 0.4866c -0.0000,0.2688 0.2179,0.4866 0.4866 0.4866c 0.2688,0.0000 0.4866,-0.2179 0.4866 -0.4866Z"/></g><g stroke-linejoin="miter" stroke-opacity="1.0" fill-opacity="1.0" stroke="rgb(0,0,0)" stroke-width="1.5999999999999999" fill="rgb(0,0,0)" stroke-linecap="butt" stroke-miterlimit="10.0"><path d="M 82.0762,370.3163 c 0.0000,-0.2688 -0.2179,-0.4866 -0.4866 -0.4866c -0.2688,-0.0000 -0.4866,0.2179 -0.4866 0.4866c -0.0000,0.2688 0.2179,0.4866 0.4866 0.4866c 0.2688,0.0000 0.4866,-0.2179 0.4866 -0.4866Z"/></g><g stroke-linejoin="miter" stroke-opacity="1.0" fill-opacity="1.0" stroke="rgb(0,0,0)" stroke-width="1.5999999999999999" fill="rgb(0,0,0)" stroke-linecap="butt" stroke-miterlimit="10.0"><path d="M 202.1087,88.0779 c 0.0000,-0.2688 -0.2179,-0.4866 -0.4866 -0.4866c -0.2688,-0.0000 -0.4866,0.2179 -0.4866 0.4866c -0.0000,0.2688 0.2179,0.4866 0.4866 0.4866c 0.2688,0.0000 0.4866,-0.2179 0.4866 -0.4866Z"/></g><g stroke-linejoin="miter" stroke-opacity="1.0" fill-opacity="1.0" stroke="rgb(0,0,0)" stroke-width="1.5999999999999999" fill="rgb(0,0,0)" stroke-linecap="butt" stroke-miterlimit="10.0"><path d="M 130.7380,370.3163 c 0.0000,-0.2688 -0.2179,-0.4866 -0.4866 -0.4866c -0.2688,-0.0000 -0.4866,0.2179 -0.4866 0.4866c -0.0000,0.2688 0.2179,0.4866 0.4866 0.4866c 0.2688,0.0000 0.4866,-0.2179 0.4866 -0.4866Z"/></g><g stroke-linejoin="miter" stroke-opacity="1.0" fill-opacity="1.0" stroke="rgb(0,0,0)" stroke-width="1.5999999999999999" fill="rgb(0,0,0)" stroke-linecap="butt" stroke-miterlimit="10.0"><path d="M 52.8792,136.7397 c 0.0000,-0.2688 -0.2179,-0.4866 -0.4866 -0.4866c -0.2688,-0.0000 -0.4866,0.2179 -0.4866 0.4866c -0.0000,0.2688 0.2179,0.4866 0.4866 0.4866c 0.2688,0.0000 0.4866,-0.2179 0.4866 -0.4866Z"/></g><g stroke-linejoin="miter" stroke-opacity="1.0" fill-opacity="1.0" stroke="rgb(0,0,0)" stroke-width="1.5999999999999999" fill="rgb(0,0,0)" stroke-linecap="butt" stroke-miterlimit="10.0"><path d="M 260.5028,88.0779 c 0.0000,-0.2688 -0.2179,-0.4866 -0.4866 -0.4866c -0.2688,-0.0000 -0.4866,0.2179 -0.4866 0.4866c -0.0000,0.2688 0.2179,0.4866 0.4866 0.4866c 0.2688,0.0000 0.4866,-0.2179 0.4866 -0.4866Z"/></g><g stroke-linejoin="miter" stroke-opacity="1.0" fill-opacity="1.0" stroke="rgb(0,0,0)" stroke-width="1.5999999999999999" fill="rgb(0,0,0)" stroke-linecap="butt" stroke-miterlimit="10.0"><path d="M 0.9732,399.5134 c 0.0000,-0.2688 -0.2179,-0.4866 -0.4866 -0.4866c -0.2688,-0.0000 -0.4866,0.2179 -0.4866 0.4866c -0.0000,0.2688 0.2179,0.4866 0.4866 0.4866c 0.2688,0.0000 0.4866,-0.2179 0.4866 -0.4866Z"/></g><g stroke-linejoin="miter" stroke-opacity="1.0" fill-opacity="1.0" stroke="rgb(0,0,0)" stroke-width="1.5999999999999999" fill="rgb(0,0,0)" stroke-linecap="butt" stroke-miterlimit="10.0"><path d="M 33.4144,136.7397 c 0.0000,-0.2688 -0.2179,-0.4866 -0.4866 -0.4866c -0.2688,-0.0000 -0.4866,0.2179 -0.4866 0.4866c -0.0000,0.2688 0.2179,0.4866 0.4866 0.4866c 0.2688,0.0000 0.4866,-0.2179 0.4866 -0.4866Z"/></g><g stroke-linejoin="miter" stroke-opacity="1.0" fill-opacity="1.0" stroke="rgb(0,0,0)" stroke-width="1.5999999999999999" fill="rgb(0,0,0)" stroke-linecap="butt" stroke-miterlimit="10.0"><path d="M 325.3852,263.2603 c 0.0000,-0.2688 -0.2179,-0.4866 -0.4866 -0.4866c -0.2688,-0.0000 -0.4866,0.2179 -0.4866 0.4866c -0.0000,0.2688 0.2179,0.4866 0.4866 0.4866c 0.2688,0.0000 0.4866,-0.2179 0.4866 -0.4866Z"/></g><g stroke-linejoin="miter" stroke-opacity="1.0" fill-opacity="1.0" stroke="rgb(0,0,0)" stroke-width="1.5999999999999999" fill="rgb(0,0,0)" stroke-linecap="butt" stroke-miterlimit="10.0"><path d="M 7.4615,10.2190 c 0.0000,-0.2688 -0.2179,-0.4866 -0.4866 -0.4866c -0.2688,-0.0000 -0.4866,0.2179 -0.4866 0.4866c -0.0000,0.2688 0.2179,0.4866 0.4866 0.4866c 0.2688,0.0000 0.4866,-0.2179 0.4866 -0.4866Z"/></g><g stroke-linejoin="miter" stroke-opacity="1.0" fill-opacity="1.0" stroke="rgb(0,0,0)" stroke-width="1.5999999999999999" fill="rgb(0,0,0)" stroke-linecap="butt" stroke-miterlimit="10.0"><path d="M 13.9497,370.3163 c 0.0000,-0.2688 -0.2179,-0.4866 -0.4866 -0.4866c -0.2688,-0.0000 -0.4866,0.2179 -0.4866 0.4866c -0.0000,0.2688 0.2179,0.4866 0.4866 0.4866c 0.2688,0.0000 0.4866,-0.2179 0.4866 -0.4866Z"/></g><g stroke-linejoin="miter" stroke-opacity="1.0" fill-opacity="1.0" stroke="rgb(0,0,0)" stroke-width="1.5999999999999999" fill="rgb(0,0,0)" stroke-linecap="butt" stroke-miterlimit="10.0"><path d="M 241.0381,389.7810 c 0.0000,-0.2688 -0.2179,-0.4866 -0.4866 -0.4866c -0.2688,-0.0000 -0.4866,0.2179 -0.4866 0.4866c -0.0000,0.2688 0.2179,0.4866 0.4866 0.4866c 0.2688,0.0000 0.4866,-0.2179 0.4866 -0.4866Z"/></g><g stroke-linejoin="miter" stroke-opacity="1.0" fill-opacity="1.0" stroke="rgb(0,0,0)" stroke-width="1.5999999999999999" fill="rgb(0,0,0)" stroke-linecap="butt" stroke-miterlimit="10.0"><path d="M 163.1792,311.9221 c 0.0000,-0.2688 -0.2179,-0.4866 -0.4866 -0.4866c -0.2688,-0.0000 -0.4866,0.2179 -0.4866 0.4866c -0.0000,0.2688 0.2179,0.4866 0.4866 0.4866c 0.2688,0.0000 0.4866,-0.2179 0.4866 -0.4866Z"/></g><g stroke-linejoin="miter" stroke-opacity="1.0" fill-opacity="1.0" stroke="rgb(0,0,0)" stroke-width="1.5999999999999999" fill="rgb(0,0,0)" stroke-linecap="butt" stroke-miterlimit="10.0"><path d="M 121.0057,263.2603 c 0.0000,-0.2688 -0.2179,-0.4866 -0.4866 -0.4866c -0.2688,-0.0000 -0.4866,0.2179 -0.4866 0.4866c -0.0000,0.2688 0.2179,0.4866 0.4866 0.4866c 0.2688,0.0000 0.4866,-0.2179 0.4866 -0.4866Z"/></g><g stroke-linejoin="miter" stroke-opacity="1.0" fill-opacity="1.0" stroke="rgb(0,0,0)" stroke-width="1.5999999999999999" fill="rgb(0,0,0)" stroke-linecap="butt" stroke-miterlimit="10.0"><path d="M 250.7705,389.7810 c 0.0000,-0.2688 -0.2179,-0.4866 -0.4866 -0.4866c -0.2688,-0.0000 -0.4866,0.2179 -0.4866 0.4866c -0.0000,0.2688 0.2179,0.4866 0.4866 0.4866c 0.2688,0.0000 0.4866,-0.2179 0.4866 -0.4866Z"/></g><g stroke-linejoin="miter" stroke-opacity="1.0" fill-opacity="1.0" stroke="rgb(0,0,0)" stroke-width="1.5999999999999999" fill="rgb(0,0,0)" stroke-linecap="butt" stroke-miterlimit="10.0"><path d="M 17.1938,311.9221 c 0.0000,-0.2688 -0.2179,-0.4866 -0.4866 -0.4866c -0.2688,-0.0000 -0.4866,0.2179 -0.4866 0.4866c -0.0000,0.2688 0.2179,0.4866 0.4866 0.4866c 0.2688,0.0000 0.4866,-0.2179 0.4866 -0.4866Z"/></g><g stroke-linejoin="miter" stroke-opacity="1.0" fill-opacity="1.0" stroke="rgb(0,0,0)" stroke-width="1.5999999999999999" fill="rgb(0,0,0)" stroke-linecap="butt" stroke-miterlimit="10.0"><path d="M 65.8556,10.2190 c 0.0000,-0.2688 -0.2179,-0.4866 -0.4866 -0.4866c -0.2688,-0.0000 -0.4866,0.2179 -0.4866 0.4866c -0.0000,0.2688 0.2179,0.4866 0.4866 0.4866c 0.2688,0.0000 0.4866,-0.2179 0.4866 -0.4866Z"/></g><g stroke-linejoin="miter" stroke-opacity="1.0" fill-opacity="1.0" stroke="rgb(0,0,0)" stroke-width="1.5999999999999999" fill="rgb(0,0,0)" stroke-linecap="butt" stroke-miterlimit="10.0"><path d="M 101.5410,370.3163 c 0.0000,-0.2688 -0.2179,-0.4866 -0.4866 -0.4866c -0.2688,-0.0000 -0.4866,0.2179 -0.4866 0.4866c -0.0000,0.2688 0.2179,0.4866 0.4866 0.4866c 0.2688,0.0000 0.4866,-0.2179 0.4866 -0.4866Z"/></g></svg>