<?xml version="1.0" encoding="UTF-8"?>
<!DOCTYPE svg PUBLIC "-//W3C//DTD SVG 1.1//EN"
    "http://www.w3.org/Graphics/SVG/1.1/DTD/svg11.dtd"><svg xmlns="http://www.w3.org/2000/svg" height="161.9651" stroke-opacity="1" viewBox="0 0 200 162" font-size="1" width="200.0000" xmlns:xlink="http://www.w3.org/1999/xlink" stroke="rgb(0,0,0)" version="1.1"><defs></defs><g stroke-linejoin="miter" stroke-opacity="1.0" fill-opacity="0.0" stroke="rgb(0,0,0)" stroke-width="0.719922517401565" fill="rgb(0,0,0)" stroke-linecap="butt" stroke-miterlimit="10.0"><path d="M 0.3170,161.6482 h 0.0000 l 3.1696,-3.1696 l 6.3391,-9.5087 l 25.3566,-15.8479 l 44.3740,-15.8479 l 50.7132,-47.5436 l 69.7306,-69.7306 "/></g><g stroke-linejoin="miter" stroke-opacity="1.0" fill-opacity="0.0" stroke="rgb(0,0,0)" stroke-width="0.719922517401565" fill="rgb(0,0,0)" stroke-linecap="butt" stroke-miterlimit="10.0"><path d="M 51.3471,114.1046 c 0.0000,-0.1751 -0.1419,-0.3170 -0.3170 -0.3170c -0.1751,-0.0000 -0.3170,0.1419 -0.3170 0.3170c -0.0000,0.1751 0.1419,0.3170 0.3170 0.3170c 0.1751,0.0000 0.3170,-0.1419 0.3170 -0.3170Z"/></g><g stroke-linejoin="miter" stroke-opacity="1.0" fill-opacity="0.0" stroke="rgb(0,0,0)" stroke-width="0.719922517401565" fill="rgb(0,0,0)" stroke-linecap="butt" stroke-miterlimit="10.0"><path d="M 64.0254,152.1395 c 0.0000,-0.1751 -0.1419,-0.3170 -0.3170 -0.3170c -0.1751,-0.0000 -0.3170,0.1419 -0.3170 0.3170c -0.0000,0.1751 0.1419,0.3170 0.3170 0.3170c 0.1751,0.0000 0.3170,-0.1419 0.3170 -0.3170Z"/></g><g stroke-linejoin="miter" stroke-opacity="1.0" fill-opacity="0.0" stroke="rgb(0,0,0)" stroke-width="0.719922517401565" fill="rgb(0,0,0)" stroke-linecap="butt" stroke-miterlimit="10.0"><path d="M 25.9905,145.8003 c 0.0000,-0.1751 -0.1419,-0.3170 -0.3170 -0.3170c -0.1751,-0.0000 -0.3170,0.1419 -0.3170 0.3170c -0.0000,0.1751 0.1419,0.3170 0.3170 0.3170c 0.1751,0.0000 0.3170,-0.1419 0.3170 -0.3170Z"/></g><g stroke-linejoin="miter" stroke-opacity="1.0" fill-opacity="0.0" stroke="rgb(0,0,0)" stroke-width="0.719922517401565" fill="rgb(0,0,0)" stroke-linecap="butt" stroke-miterlimit="10.0"><path d="M 6.9731,152.1395 c 0.0000,-0.1751 -0.1419,-0.3170 -0.3170 -0.3170c -0.1751,-0.0000 -0.3170,0.1419 -0.3170 0.3170c -0.0000,0.1751 0.1419,0.3170 0.3170 0.3170c 0.1751,0.0000 0.3170,-0.1419 0.3170 -0.3170Z"/></g><g stroke-linejoin="miter" stroke-opacity="1.0" fill-opacity="0.0" stroke="rgb(0,0,0)" stroke-width="0.719922517401565" fill="rgb(0,0,0)" stroke-linecap="butt" stroke-miterlimit="10.0"><path d="M 70.3645,91.9176 c 0.0000,-0.1751 -0.1419,-0.3170 -0.3170 -0.3170c -0.1751,-0.0000 -0.3170,0.1419 -0.3170 0.3170c -0.0000,0.1751 0.1419,0.3170 0.3170 0.3170c 0.1751,0.0000 0.3170,-0.1419 0.3170 -0.3170Z"/></g><g stroke-linejoin="miter" stroke-opacity="1.0" fill-opacity="0.0" stroke="rgb(0,0,0)" stroke-width="0.719922517401565" fill="rgb(0,0,0)" stroke-linecap="butt" stroke-miterlimit="10.0"><path d="M 3.8035,158.4786 c 0.0000,-0.1751 -0.1419,-0.3170 -0.3170 -0.3170c -0.1751,-0.0000 -0.3170,0.1419 -0.3170 0.3170c -0.0000,0.1751 0.1419,0.3170 0.3170 0.3170c 0.1751,0.0000 0.3170,-0.1419 0.3170 -0.3170Z"/></g><g stroke-linejoin="miter" stroke-opacity="1.0" fill-opacity="0.0" stroke="rgb(0,0,0)" stroke-width="0.719922517401565" fill="rgb(0,0,0)" stroke-linecap="butt" stroke-miterlimit="10.0"><path d="M 0.6339,161.6482 c 0.0000,-0.1751 -0.1419,-0.3170 -0.3170 -0.3170c -0.1751,-0.0000 -0.3170,0.1419 -0.3170 0.3170c -0.0000,0.1751 0.1419,0.3170 0.3170 0.3170c 0.1751,0.0000 0.3170,-0.1419 0.3170 -0.3170Z"/></g><g stroke-linejoin="miter" stroke-opacity="1.0" fill-opacity="0.0" stroke="rgb(0,0,0)" stroke-width="0.719922517401565" fill="rgb(0,0,0)" stroke-linecap="butt" stroke-miterlimit="10.0"><path d="M 32.3296,158.4786 c 0.0000,-0.1751 -0.1419,-0.3170 -0.3170 -0.3170c -0.1751,-0.0000 -0.3170,0.1419 -0.3170 0.3170c -0.0000,0.1751 0.1419,0.3170 0.3170 0.3170c 0.1751,0.0000 0.3170,-0.1419 0.3170 -0.3170Z"/></g><g stroke-linejoin="miter" stroke-opacity="1.0" fill-opacity="0.0" stroke="rgb(0,0,0)" stroke-width="0.719922517401565" fill="rgb(0,0,0)" stroke-linecap="butt" stroke-miterlimit="10.0"><path d="M 57.6862,133.1220 c 0.0000,-0.1751 -0.1419,-0.3170 -0.3170 -0.3170c -0.1751,-0.0000 -0.3170,0.1419 -0.3170 0.3170c -0.0000,0.1751 0.1419,0.3170 0.3170 0.3170c 0.1751,0.0000 0.3170,-0.1419 0.3170 -0.3170Z"/></g><g stroke-linejoin="miter" stroke-opacity="1.0" fill-opacity="0.0" stroke="rgb(0,0,0)" stroke-width="0.719922517401565" fill="rgb(0,0,0)" stroke-linecap="butt" stroke-miterlimit="10.0"><path d="M 45.0079,145.8003 c 0.0000,-0.1751 -0.1419,-0.3170 -0.3170 -0.3170c -0.1751,-0.0000 -0.3170,0.1419 -0.3170 0.3170c -0.0000,0.1751 0.1419,0.3170 0.3170 0.3170c 0.1751,0.0000 0.3170,-0.1419 0.3170 -0.3170Z"/></g><g stroke-linejoin="miter" stroke-opacity="1.0" fill-opacity="0.0" stroke="rgb(0,0,0)" stroke-width="0.719922517401565" fill="rgb(0,0,0)" stroke-linecap="butt" stroke-miterlimit="10.0"><path d="M 13.3122,133.1220 c 0.0000,-0.1751 -0.1419,-0.3170 -0.3170 -0.3170c -0.1751,-0.0000 -0.3170,0.1419 -0.3170 0.3170c -0.0000,0.1751 0.1419,0.3170 0.3170 0.3170c 0.1751,0.0000 0.3170,-0.1419 0.3170 -0.3170Z"/></g><g stroke-linejoin="miter" stroke-opacity="1.0" fill-opacity="0.0" stroke="rgb(0,0,0)" stroke-width="0.719922517401565" fill="rgb(0,0,0)" stroke-linecap="butt" stroke-miterlimit="10.0"><path d="M 38.6688,158.4786 c 0.0000,-0.1751 -0.1419,-0.3170 -0.3170 -0.3170c -0.1751,-0.0000 -0.3170,0.1419 -0.3170 0.3170c -0.0000,0.1751 0.1419,0.3170 0.3170 0.3170c 0.1751,0.0000 0.3170,-0.1419 0.3170 -0.3170Z"/></g><g stroke-linejoin="miter" stroke-opacity="1.0" fill-opacity="0.0" stroke="rgb(0,0,0)" stroke-width="0.719922517401565" fill="rgb(0,0,0)" stroke-linecap="butt" stroke-miterlimit="10.0"><path d="M 19.6513,114.1046 c 0.0000,-0.1751 -0.1419,-0.3170 -0.3170 -0.3170c -0.1751,-0.0000 -0.3170,0.1419 -0.3170 0.3170c -0.0000,0.1751 0.1419,0.3170 0.3170 0.3170c 0.1751,0.0000 0.3170,-0.1419 0.3170 -0.3170Z"/></g></svg>